<!-- icon666.com - MILLIONS OF FREE VECTOR ICONS --><svg version="1.1" id="Capa_1" xmlns="http://www.w3.org/2000/svg" xmlns:xlink="http://www.w3.org/1999/xlink" x="0px" y="0px" viewBox="0 0 512 512" style="enable-background:new 0 0 512 512;" xml:space="preserve"><g><g><path d="M487.104,24.954c-33.274-33.269-87.129-33.273-120.407,0L51.948,339.665c-2.098,2.097-3.834,4.825-4.831,7.817 L1.057,485.647c-5.2,15.598,9.679,30.503,25.298,25.296l138.182-46.055c2.922-0.974,5.665-2.678,7.819-4.831l314.748-314.711 C520.299,112.154,520.299,58.146,487.104,24.954z M51.654,460.352l23.177-69.525l46.356,46.35L51.654,460.352z M158.214,417.634 l-63.837-63.829l267.272-267.24l63.837,63.83L158.214,417.634z M458.818,117.065l-5.049,5.049l-63.837-63.83l5.049-5.048 c17.602-17.597,46.239-17.597,63.837,0C476.419,70.833,476.419,99.467,458.818,117.065z" fill="#000000" style="fill: rgb(41, 231, 197);"></path></g></g></svg>