<!-- icon666.com - MILLIONS OF FREE VECTOR ICONS --><svg version="1.1" id="Capa_1" xmlns="http://www.w3.org/2000/svg" xmlns:xlink="http://www.w3.org/1999/xlink" x="0px" y="0px" viewBox="0 0 409.605 409.605" style="enable-background:new 0 0 409.605 409.605;" xml:space="preserve"><g><g><path d="M204.8,0.003C91.684,0.003,0,84.032,0,187.733c0,40.668,14.264,78.234,38.287,109L1.3,386.005 c-3.599,8.699,0.532,18.667,9.236,22.298c4.367,1.802,9.032,1.664,13.066,0L132.506,363.2 c22.502,7.798,46.802,12.268,72.299,12.268c113.137,0,204.8-84.101,204.8-187.735C409.6,84.032,317.937,0.003,204.8,0.003z M231.864,238.933l-54.129-54.129l-54.118,54.129l-24.151-24.131l78.269-78.269l54.129,54.134l54.134-54.134l24.136,24.136 L231.864,238.933z" fill="#000000" style="fill: rgb(41, 231, 197);"></path></g></g></svg>