<!-- icon666.com - MILLIONS OF FREE VECTOR ICONS --><svg version="1.1" id="Capa_1" xmlns="http://www.w3.org/2000/svg" xmlns:xlink="http://www.w3.org/1999/xlink" x="0px" y="0px" viewBox="0 0 409.605 409.605" style="enable-background:new 0 0 409.605 409.605;" xml:space="preserve"><g><g><path d="M204.8,0C91.684,0,0,84.035,0,187.735c0,40.668,14.264,78.234,38.287,109L1.3,386.007 c-3.599,8.699,0.532,18.667,9.236,22.298c4.367,1.802,9.032,1.664,13.066,0l108.902-45.102 c22.502,7.798,46.802,12.267,72.299,12.267c113.137,0,204.8-84.101,204.8-187.735C409.6,84.035,317.937,0,204.8,0z M204.8,341.33 c-20.685,0-41.252-3.502-61.133-10.399l-12.252-4.229l-82.816,34.299L77.435,291.4l-12.252-15.672 c-20.321-26.03-31.048-56.463-31.048-88.003c0-84.695,76.549-153.6,170.665-153.6c94.1,0,170.665,68.9,170.665,153.6 C375.465,272.399,298.9,341.33,204.8,341.33z" fill="#000000" style="fill: rgb(41, 231, 197);"></path></g></g><g><g><polygon points="285.998,136.535 231.864,190.648 177.736,136.535 99.466,214.799 123.617,238.93 177.736,184.801 231.864,238.93 310.134,160.666 " fill="#000000" style="fill: rgb(41, 231, 197);"></polygon></g></g></svg>